# xmcd
#
# Track frame offsets:
#	150
#	3389
#	23384
#	42669
#	62339
#	82008
#	97693
#	115692
#	133178
#	152752
#	168309
#	184766
#	201222
#	217422
#	234907
#	247507
#	264735
#	281193
#	294274
#	306739
#
# Disc length: 4446 seconds
#
# Revision: 0
# Processed by: cddbd v1.5.2PL0 Copyright (c) Steve Scherf et al.
# Submitted via: EasyCDDAExtractor 10.0.1.1
#
DISCID=15115c14
DTITLE=Various Artist - Magik Belgium Mixed by Dj Yann
DYEAR=2005
DGENRE=Techno
TTITLE0=Intro
TTITLE1=Tom Snare - Philosophy
TTITLE2=Sustain Control - Black Out System
TTITLE3=Dj LB - Break It
TTITLE4=Carunie - From Russia With Love
TTITLE5=Stunt Crew faet Dj E-Max - Fuck That feat Dj E-Max
TTITLE6=Major Bryce and Eddy Kin - Baby 4
TTITLE7=Dj Wout - Somebody Else (stormtraxx remix)
TTITLE8=Tranceball - Altitude 195
TTITLE9=Jones and Starfighter - Oh Shit (tuff boy looking for some pussy mix)
TTITLE10=Dj Furax vs V-Beatz - Old Back Working
TTITLE11=Samantha T Bone - Whirlpool
TTITLE12=Shock Wave - Plug
TTITLE13=Fog System - Frenesy
TTITLE14=Felix Project - On The Floor
TTITLE15=Binum - The Message
TTITLE16=Baba Style - Overdose
TTITLE17=Dj Greg C - Atmosphere
TTITLE18=Sylver Stone - Party Kick 2006
TTITLE19=Dj Yann -  Megamix
EXTD=
EXTT0=
EXTT1=
EXTT2=
EXTT3=
EXTT4=
EXTT5=
EXTT6=
EXTT7=
EXTT8=
EXTT9=
EXTT10=
EXTT11=
EXTT12=
EXTT13=
EXTT14=
EXTT15=
EXTT16=
EXTT17=
EXTT18=
EXTT19=
PLAYORDER=
